REM DIRINDEX 1\2,1\3,1\4,1\5,1\6
REM DIRNAME folder01,folder02,folder03,folder04,folder05,folder06
TITLE ""
FILE "Disc1Track58.mp3" MP3
  TRACK 01 AUDIO
    TITLE "3:cjc030_01430"
    INDEX 01 00:00:00
  TRACK 02 AUDIO
    TITLE "0:"
    INDEX 01 00:01:19
  TRACK 03 AUDIO
    TITLE "4:cjc030_01431"
    INDEX 01 00:01:26
  TRACK 04 AUDIO
    TITLE "0:"
    INDEX 01 00:02:24
  TRACK 05 AUDIO
    TITLE "5:cjc030_01432"
    INDEX 01 00:02:38
  TRACK 06 AUDIO
    TITLE "0:"
    INDEX 01 00:03:53
  TRACK 07 AUDIO
    TITLE "6:cjc030_01433"
    INDEX 01 00:03:66
  TRACK 08 AUDIO
    TITLE "0:"
    INDEX 01 00:08:23
  TRACK 09 AUDIO
    TITLE "3:cjc030_01434"
    INDEX 01 00:08:70
  TRACK 10 AUDIO
    TITLE "0:"
    INDEX 01 00:10:12
  TRACK 11 AUDIO
    TITLE "4:cjc030_01435"
    INDEX 01 00:10:21
  TRACK 12 AUDIO
    TITLE "0:"
    INDEX 01 00:14:25
  TRACK 13 AUDIO
    TITLE "5:cjc030_01436"
    INDEX 01 00:14:33
  TRACK 14 AUDIO
    TITLE "0:"
    INDEX 01 00:15:50
  TRACK 15 AUDIO
    TITLE "6:cjc030_01437"
    INDEX 01 00:15:64
  TRACK 16 AUDIO
    TITLE "0:"
    INDEX 01 00:17:53
  TRACK 17 AUDIO
    TITLE "3:cjc030_01438"
    INDEX 01 00:18:29
  TRACK 18 AUDIO
    TITLE "0:"
    INDEX 01 00:19:46
  TRACK 19 AUDIO
    TITLE "4:cjc030_01439"
    INDEX 01 00:19:54
  TRACK 20 AUDIO
    TITLE "0:"
    INDEX 01 00:21:51
  TRACK 21 AUDIO
    TITLE "5:cjc030_01440"
    INDEX 01 00:21:58
  TRACK 22 AUDIO
    TITLE "0:"
    INDEX 01 00:22:74
  TRACK 23 AUDIO
    TITLE "6:cjc030_01441"
    INDEX 01 00:23:12
  TRACK 24 AUDIO
    TITLE "0:"
    INDEX 01 00:26:48
  TRACK 25 AUDIO
    TITLE "3:cjc030_01442"
    INDEX 01 00:27:22
  TRACK 26 AUDIO
    TITLE "0:"
    INDEX 01 00:28:55
  TRACK 27 AUDIO
    TITLE "4:cjc030_01443"
    INDEX 01 00:28:62
  TRACK 28 AUDIO
    TITLE "0:"
    INDEX 01 00:30:32
  TRACK 29 AUDIO
    TITLE "5:cjc030_01444"
    INDEX 01 00:30:38
  TRACK 30 AUDIO
    TITLE "0:"
    INDEX 01 00:32:00
  TRACK 31 AUDIO
    TITLE "3:cjc030_01445"
    INDEX 01 00:32:52
  TRACK 32 AUDIO
    TITLE "0:"
    INDEX 01 00:33:73
  TRACK 33 AUDIO
    TITLE "4:cjc030_01446"
    INDEX 01 00:34:08
  TRACK 34 AUDIO
    TITLE "0:"
    INDEX 01 00:35:33
  TRACK 35 AUDIO
    TITLE "5:cjc030_01447"
    INDEX 01 00:35:41
  TRACK 36 AUDIO
    TITLE "0:"
    INDEX 01 00:36:62
  TRACK 37 AUDIO
    TITLE "3:cjc030_01448"
    INDEX 01 00:37:40
  TRACK 38 AUDIO
    TITLE "0:"
    INDEX 01 00:39:05
  TRACK 39 AUDIO
    TITLE "4:cjc030_01449"
    INDEX 01 00:39:15
  TRACK 40 AUDIO
    TITLE "0:"
    INDEX 01 00:41:20
  TRACK 41 AUDIO
    TITLE "5:cjc030_01450"
    INDEX 01 00:41:30
  TRACK 42 AUDIO
    TITLE "0:"
    INDEX 01 00:42:68
  TRACK 43 AUDIO
    TITLE "6:cjc030_01451"
    INDEX 01 00:43:07
  TRACK 44 AUDIO
    TITLE "0:"
    INDEX 01 00:47:54
  TRACK 45 AUDIO
    TITLE "3:cjc030_01452"
    INDEX 01 00:48:24
  TRACK 46 AUDIO
    TITLE "0:"
    INDEX 01 00:49:57
  TRACK 47 AUDIO
    TITLE "4:cjc030_01453"
    INDEX 01 00:49:65
  TRACK 48 AUDIO
    TITLE "0:"
    INDEX 01 00:52:06
  TRACK 49 AUDIO
    TITLE "5:cjc030_01454"
    INDEX 01 00:52:14
  TRACK 50 AUDIO
    TITLE "0:"
    INDEX 01 00:53:47
  TRACK 51 AUDIO
    TITLE "6:cjc030_01455"
    INDEX 01 00:53:58
  TRACK 52 AUDIO
    TITLE "0:"
    INDEX 01 00:56:33
  TRACK 53 AUDIO
    TITLE "3:cjc030_01456"
    INDEX 01 00:57:07
  TRACK 54 AUDIO
    TITLE "0:"
    INDEX 01 00:58:42
  TRACK 55 AUDIO
    TITLE "4:cjc030_01457"
    INDEX 01 00:58:50
  TRACK 56 AUDIO
    TITLE "0:"
    INDEX 01 01:00:25
  TRACK 57 AUDIO
    TITLE "5:cjc030_01458"
    INDEX 01 01:00:33
  TRACK 58 AUDIO
    TITLE "0:"
    INDEX 01 01:01:68
  TRACK 59 AUDIO
    TITLE "6:cjc030_01459"
    INDEX 01 01:02:08
  TRACK 60 AUDIO
    TITLE "0:"
    INDEX 01 01:06:36
